<svg enable-background="new 0 0 1683.78 1190.55" viewBox="0 0 1683.78 1190.55" xmlns="http://www.w3.org/2000/svg"><g fill="#fff"><path d="m1338.82 680.89h14.22l-3.55 25.28h-7.11z"/><path d="m1405.09 794.64h-22.04v-85.06l-26.31 8.12v-17.77l45.98-16.47h2.36v111.18z"/><path d="m1473.66 750.26c-5.75 5.64-12.46 8.46-20.13 8.46-9.81 0-17.67-3.37-23.56-10.1-5.9-6.74-8.85-15.82-8.85-27.26 0-7.27 1.59-13.94 4.77-20.02 3.18-6.07 7.61-10.8 13.31-14.18 5.69-3.38 12.1-5.07 19.22-5.07 7.32 0 13.83 1.83 19.52 5.49s10.12 8.92 13.27 15.78 4.75 14.72 4.8 23.56v8.16c0 18.5-4.6 33.04-13.8 43.62-9.2 10.57-22.24 16.22-39.12 16.93l-5.41.08v-18.38l4.88-.08c19.15-.86 29.52-9.86 31.1-26.99zm-14.72-8.39c3.56 0 6.62-.91 9.19-2.75 2.57-1.83 4.51-4.04 5.83-6.63v-9.07c0-7.47-1.42-13.27-4.27-17.39s-6.66-6.18-11.44-6.18c-4.42 0-8.06 2.02-10.9 6.06-2.85 4.04-4.27 9.11-4.27 15.21 0 6.05 1.38 11.02 4.16 14.91 2.77 3.89 6.67 5.84 11.7 5.84z"/><path d="m974.2 485.51 28.37-87.32h21.31l-40.17 111.62h-18.78l-40.02-111.62h21.24z"/><path d="m1055.85 494.17h50.67v15.64h-70.07v-111.62h19.4z"/><path d="m1201.66 473.47c-1.13 11.91-5.52 21.2-13.19 27.87s-17.86 10-30.59 10c-8.89 0-16.73-2.11-23.5-6.32-6.77-4.22-12-10.21-15.68-17.98s-5.6-16.79-5.75-27.06v-10.43c0-10.53 1.86-19.8 5.6-27.83 3.73-8.02 9.08-14.21 16.06-18.55s15.04-6.52 24.19-6.52c12.32 0 22.23 3.34 29.74 10 7.51 6.67 11.88 16.11 13.11 28.33h-19.32c-.92-8.02-3.26-13.81-7.01-17.36-3.76-3.55-9.26-5.33-16.52-5.33-8.43 0-14.91 3.08-19.43 9.25-4.52 6.16-6.84 15.21-6.94 27.12v9.9c0 12.07 2.16 21.28 6.48 27.62s10.64 9.52 18.97 9.52c7.61 0 13.34-1.71 17.17-5.14 3.83-3.42 6.26-9.12 7.28-17.1h19.33z"/><path d="m1015.32 556.13h-34.87v96.16h-19.28v-96.16h-34.56v-15.67h88.71z"/><path d="m1094.25 602.37h-45.93v34.26h53.69v15.67h-73.12v-111.84h72.58v15.67h-53.15v30.87h45.93z"/><path d="m1202.06 615.89c-1.13 11.93-5.53 21.24-13.21 27.92s-17.9 10.02-30.65 10.02c-8.91 0-16.76-2.11-23.54-6.34-6.79-4.22-12.02-10.23-15.71-18.01s-5.61-16.82-5.76-27.11v-10.45c0-10.55 1.87-19.84 5.61-27.88s9.1-14.24 16.09-18.59 15.07-6.53 24.23-6.53c12.34 0 22.27 3.34 29.8 10.02s11.91 16.14 13.13 28.38h-19.35c-.92-8.04-3.27-13.84-7.03-17.4s-9.28-5.34-16.55-5.34c-8.45 0-14.94 3.09-19.47 9.26-4.53 6.18-6.85 15.23-6.95 27.17v9.92c0 12.09 2.16 21.32 6.49 27.67 4.33 6.36 10.66 9.53 19.01 9.53 7.63 0 13.36-1.72 17.2-5.15s6.27-9.14 7.3-17.13h19.36z"/><path d="m1307.11 652.29h-19.35v-49.62h-50v49.62h-19.43v-111.83h19.43v46.54h50v-46.54h19.35z"/><path d="m998.6 749.59-44.36-.05-.06 45.46-27.51-.03.14-114.11 76.33.09-.03 21.24-48.83-.06-.03 26.25 44.36.05z"/><path d="m1087.1 746.72-43.26-.05-.03 27.27 51.1.06-.03 21.16-78.61-.1.14-114.11 78.76.1-.03 21.24-51.26-.06-.03 24.06 43.26.05z"/><path d="m1170.76 764.92c0-4.02-1.41-7.16-4.26-9.41-2.84-2.25-7.85-4.58-15-6.99-7.16-2.41-13-4.74-17.55-7-14.78-7.28-22.16-17.27-22.14-29.97.01-6.32 1.86-11.9 5.55-16.73s8.91-8.58 15.65-11.27 14.32-4.02 22.73-4.01c8.2.01 15.55 1.48 22.06 4.42 6.5 2.93 11.55 7.11 15.15 12.52s5.39 11.59 5.38 18.54l-27.43-.02c.01-4.65-1.41-8.26-4.26-10.82s-6.7-3.85-11.56-3.85c-4.91-.01-8.79 1.07-11.64 3.24s-4.28 4.92-4.28 8.26c0 2.93 1.56 5.58 4.69 7.96s8.64 4.84 16.53 7.39c7.89 2.54 14.36 5.28 19.43 8.21 12.32 7.12 18.47 16.93 18.46 29.41-.01 9.98-3.78 17.81-11.31 23.5s-17.85 8.52-30.97 8.5c-9.25-.01-17.62-1.68-25.11-5.01s-13.13-7.88-16.91-13.66-5.67-12.43-5.66-19.95l27.59.03c-.01 6.11 1.57 10.62 4.72 13.52 3.16 2.91 8.29 4.36 15.39 4.37 4.55.01 8.14-.97 10.78-2.93s3.97-4.7 3.97-8.25z"/><path d="m1306.83 702.54-34.25-.04-.11 92.87-27.51-.03.11-92.87-33.62-.04.03-21.24 95.38.12z"/><path d="m397.43 651.49 45.56-.13-.14-45.56z"/><path d="m442.72 561.25-.06-22.08-22.08.06-89.85 90.38.07 22.08 22.08-.07z"/><path d="m376.03 539.36-45.56.14.13 45.56z"/><path d="m681.74 651.49 45.56-.13-.13-45.56z"/><path d="m727.04 561.25-.07-22.08-22.08.06-89.84 90.38.06 22.08 22.08-.07z"/><path d="m660.34 539.36-45.56.14.14 45.56z"/></g><path d="m472.71 539.25h112.35v112.35h-112.35z" fill="#c9197c" transform="matrix(1 -.00293287 .00293287 1 -1.744 1.5537)"/><path d="m757.11 539.25h112.35v112.35h-112.35z" fill="#c9197c" transform="matrix(1 -.00293287 .00293287 1 -1.7428 2.3878)"/><path d="m614.56 396.84h112.96v112.96h-112.96z" fill="#c9197c" transform="matrix(1 -.00293287 .00293287 1 -1.3266 1.97)"/><path d="m330.25 396.84h112.96v112.96h-112.96z" fill="#c9197c" transform="matrix(1 -.00293287 .00293287 1 -1.3279 1.1362)"/><path d="m539.64 509.69 45.81-.13-.13-45.81z" fill="#fff"/><path d="m585.19 418.95-.07-22.2-22.2.07-90.34 90.87.07 22.2 22.2-.07z" fill="#fff"/><path d="m518.13 396.95-45.81.13.13 45.81z" fill="#fff"/><path d="m255.33 509.69 45.81-.13-.14-45.81z" fill="#fff"/><path d="m300.87 418.95-.06-22.2-22.2.07-90.34 90.87.06 22.2 22.2-.07z" fill="#fff"/><path d="m233.81 396.95-45.81.13.13 45.81z" fill="#fff"/><path d="m756.8 396.84h112.96v112.96h-112.96z" fill="#c9197c" transform="matrix(1 -.00293287 .00293287 1 -1.326 2.3872)"/><path d="m188.4 681.73h112.35v112.35h-112.35z" fill="#c9197c" transform="matrix(1 -.00293287 .00293287 1 -2.1631 .7205)"/><path d="m397.43 793.62 45.56-.13-.14-45.56z" fill="#fff"/><path d="m442.72 703.38-.06-22.08-22.08.06-89.85 90.38.07 22.08 22.08-.07z" fill="#fff"/><path d="m376.03 681.5-45.56.13.13 45.56z" fill="#fff"/><path d="m539.58 792.94 45.56-.13-.13-45.56z" fill="#fff"/><path d="m584.88 702.7-.07-22.08-22.08.06-89.84 90.38.06 22.08 22.08-.07z" fill="#fff"/><path d="m518.18 680.81-45.56.14.14 45.56z" fill="#fff"/><path d="m614.87 680.36h112.35v112.35h-112.35z" fill="#c9197c" transform="matrix(1 -.00293287 .00293287 1 -2.1573 1.9712)"/><path d="m757.11 681.05h112.35v112.35h-112.35z" fill="#c9197c" transform="matrix(1 -.00293287 .00293287 1 -2.1587 2.3884)"/></svg>