<?xml version="1.0" encoding="utf-8"?>
<!-- Generator: Adobe Illustrator 23.0.3, SVG Export Plug-In . SVG Version: 6.00 Build 0)  -->
<svg version="1.1" id="Capa_1" xmlns="http://www.w3.org/2000/svg" xmlns:xlink="http://www.w3.org/1999/xlink" x="0px" y="0px"
	 viewBox="0 0 1683.78 1190.55" enable-background="new 0 0 1683.78 1190.55" xml:space="preserve">
<g>
	<path fill="#FFFFFF" d="M1338.82,680.89h14.22l-3.55,25.28h-7.11L1338.82,680.89z"/>
	<path fill="#FFFFFF" d="M1405.09,794.64h-22.04v-85.06l-26.31,8.12v-17.77l45.98-16.47h2.36V794.64z"/>
	<path fill="#FFFFFF" d="M1473.66,750.26c-5.75,5.64-12.46,8.46-20.13,8.46c-9.81,0-17.67-3.37-23.56-10.1
		c-5.9-6.74-8.85-15.82-8.85-27.26c0-7.27,1.59-13.94,4.77-20.02c3.18-6.07,7.61-10.8,13.31-14.18c5.69-3.38,12.1-5.07,19.22-5.07
		c7.32,0,13.83,1.83,19.52,5.49c5.69,3.66,10.12,8.92,13.27,15.78c3.15,6.86,4.75,14.72,4.8,23.56v8.16c0,18.5-4.6,33.04-13.8,43.62
		c-9.2,10.57-22.24,16.22-39.12,16.93l-5.41,0.08v-18.38l4.88-0.08C1461.71,776.39,1472.08,767.39,1473.66,750.26z M1458.94,741.87
		c3.56,0,6.62-0.91,9.19-2.75c2.57-1.83,4.51-4.04,5.83-6.63v-9.07c0-7.47-1.42-13.27-4.27-17.39c-2.85-4.12-6.66-6.18-11.44-6.18
		c-4.42,0-8.06,2.02-10.9,6.06c-2.85,4.04-4.27,9.11-4.27,15.21c0,6.05,1.38,11.02,4.16,14.91
		C1450.01,739.92,1453.91,741.87,1458.94,741.87z"/>
	<g>
		<path fill="#FFFFFF" d="M974.2,485.51l28.37-87.32h21.31l-40.17,111.62h-18.78l-40.02-111.62h21.24L974.2,485.51z"/>
		<path fill="#FFFFFF" d="M1055.85,494.17h50.67v15.64h-70.07V398.19h19.4V494.17z"/>
		<path fill="#FFFFFF" d="M1201.66,473.47c-1.13,11.91-5.52,21.2-13.19,27.87c-7.67,6.67-17.86,10-30.59,10
			c-8.89,0-16.73-2.11-23.5-6.32c-6.77-4.22-12-10.21-15.68-17.98c-3.68-7.77-5.6-16.79-5.75-27.06v-10.43
			c0-10.53,1.86-19.8,5.6-27.83c3.73-8.02,9.08-14.21,16.06-18.55c6.98-4.34,15.04-6.52,24.19-6.52c12.32,0,22.23,3.34,29.74,10
			c7.51,6.67,11.88,16.11,13.11,28.33h-19.32c-0.92-8.02-3.26-13.81-7.01-17.36c-3.76-3.55-9.26-5.33-16.52-5.33
			c-8.43,0-14.91,3.08-19.43,9.25c-4.52,6.16-6.84,15.21-6.94,27.12v9.9c0,12.07,2.16,21.28,6.48,27.62
			c4.32,6.34,10.64,9.52,18.97,9.52c7.61,0,13.34-1.71,17.17-5.14c3.83-3.42,6.26-9.12,7.28-17.1H1201.66z"/>
	</g>
	<g>
		<path fill="#FFFFFF" d="M1015.32,556.13h-34.87v96.16h-19.28v-96.16h-34.56v-15.67h88.71V556.13z"/>
		<path fill="#FFFFFF" d="M1094.25,602.37h-45.93v34.26h53.69v15.67h-73.12V540.46h72.58v15.67h-53.15v30.87h45.93V602.37z"/>
		<path fill="#FFFFFF" d="M1202.06,615.89c-1.13,11.93-5.53,21.24-13.21,27.92c-7.68,6.68-17.9,10.02-30.65,10.02
			c-8.91,0-16.76-2.11-23.54-6.34c-6.79-4.22-12.02-10.23-15.71-18.01c-3.69-7.78-5.61-16.82-5.76-27.11v-10.45
			c0-10.55,1.87-19.84,5.61-27.88c3.74-8.04,9.1-14.24,16.09-18.59c6.99-4.35,15.07-6.53,24.23-6.53c12.34,0,22.27,3.34,29.8,10.02
			c7.53,6.68,11.91,16.14,13.13,28.38h-19.35c-0.92-8.04-3.27-13.84-7.03-17.4c-3.76-3.56-9.28-5.34-16.55-5.34
			c-8.45,0-14.94,3.09-19.47,9.26c-4.53,6.18-6.85,15.23-6.95,27.17v9.92c0,12.09,2.16,21.32,6.49,27.67
			c4.33,6.36,10.66,9.53,19.01,9.53c7.63,0,13.36-1.72,17.2-5.15c3.84-3.43,6.27-9.14,7.3-17.13H1202.06z"/>
		<path fill="#FFFFFF" d="M1307.11,652.29h-19.35v-49.62h-50v49.62h-19.43V540.46h19.43v46.54h50v-46.54h19.35V652.29z"/>
	</g>
	<g>
		<path fill="#FFFFFF" d="M998.6,749.59l-44.36-0.05l-0.06,45.46l-27.51-0.03l0.14-114.11l76.33,0.09l-0.03,21.24l-48.83-0.06
			l-0.03,26.25l44.36,0.05L998.6,749.59z"/>
		<path fill="#FFFFFF" d="M1087.1,746.72l-43.26-0.05l-0.03,27.27l51.1,0.06l-0.03,21.16l-78.61-0.1l0.14-114.11l78.76,0.1
			l-0.03,21.24l-51.26-0.06l-0.03,24.06l43.26,0.05L1087.1,746.72z"/>
		<path fill="#FFFFFF" d="M1170.76,764.92c0-4.02-1.41-7.16-4.26-9.41c-2.84-2.25-7.85-4.58-15-6.99c-7.16-2.41-13-4.74-17.55-7
			c-14.78-7.28-22.16-17.27-22.14-29.97c0.01-6.32,1.86-11.9,5.55-16.73c3.69-4.83,8.91-8.58,15.65-11.27s14.32-4.02,22.73-4.01
			c8.2,0.01,15.55,1.48,22.06,4.42c6.5,2.93,11.55,7.11,15.15,12.52c3.6,5.41,5.39,11.59,5.38,18.54L1170.9,715
			c0.01-4.65-1.41-8.26-4.26-10.82c-2.85-2.56-6.7-3.85-11.56-3.85c-4.91-0.01-8.79,1.07-11.64,3.24c-2.85,2.17-4.28,4.92-4.28,8.26
			c0,2.93,1.56,5.58,4.69,7.96c3.13,2.38,8.64,4.84,16.53,7.39c7.89,2.54,14.36,5.28,19.43,8.21c12.32,7.12,18.47,16.93,18.46,29.41
			c-0.01,9.98-3.78,17.81-11.31,23.5c-7.53,5.69-17.85,8.52-30.97,8.5c-9.25-0.01-17.62-1.68-25.11-5.01
			c-7.49-3.33-13.13-7.88-16.91-13.66c-3.78-5.78-5.67-12.43-5.66-19.95l27.59,0.03c-0.01,6.11,1.57,10.62,4.72,13.52
			c3.16,2.91,8.29,4.36,15.39,4.37c4.55,0.01,8.14-0.97,10.78-2.93S1170.76,768.47,1170.76,764.92z"/>
		<path fill="#FFFFFF" d="M1306.83,702.54l-34.25-0.04l-0.11,92.87l-27.51-0.03l0.11-92.87l-33.62-0.04l0.03-21.24l95.38,0.12
			L1306.83,702.54z"/>
	</g>
	<g>
		<polygon fill="#FFFFFF" points="397.43,651.49 442.99,651.36 442.85,605.8 		"/>
		<polygon fill="#FFFFFF" points="442.72,561.25 442.66,539.17 420.58,539.23 330.73,629.61 330.8,651.69 352.88,651.62 		"/>
		<polygon fill="#FFFFFF" points="376.03,539.36 330.47,539.5 330.6,585.06 		"/>
	</g>
	<g>
		<polygon fill="#FFFFFF" points="681.74,651.49 727.3,651.36 727.17,605.8 		"/>
		<polygon fill="#FFFFFF" points="727.04,561.25 726.97,539.17 704.89,539.23 615.05,629.61 615.11,651.69 637.19,651.62 		"/>
		<polygon fill="#FFFFFF" points="660.34,539.36 614.78,539.5 614.92,585.06 		"/>
	</g>
	
		<rect x="472.71" y="539.25" transform="matrix(1 -2.932866e-03 2.932866e-03 1 -1.744 1.5537)" fill="#C9197C" width="112.35" height="112.35"/>
	
		<rect x="757.11" y="539.25" transform="matrix(1 -2.932866e-03 2.932866e-03 1 -1.7428 2.3878)" fill="#C9197C" width="112.35" height="112.35"/>
	
		<rect x="614.56" y="396.84" transform="matrix(1 -2.932866e-03 2.932866e-03 1 -1.3266 1.97)" fill="#C9197C" width="112.96" height="112.96"/>
	
		<rect x="330.25" y="396.84" transform="matrix(1 -2.932866e-03 2.932866e-03 1 -1.3279 1.1362)" fill="#C9197C" width="112.96" height="112.96"/>
	<g>
		<polygon fill="#FFFFFF" points="539.64,509.69 585.45,509.56 585.32,463.75 		"/>
		<polygon fill="#FFFFFF" points="585.19,418.95 585.12,396.75 562.92,396.82 472.58,487.69 472.65,509.89 494.85,509.82 		"/>
		<polygon fill="#FFFFFF" points="518.13,396.95 472.32,397.08 472.45,442.89 		"/>
	</g>
	<g>
		<polygon fill="#FFFFFF" points="255.33,509.69 301.14,509.56 301,463.75 		"/>
		<polygon fill="#FFFFFF" points="300.87,418.95 300.81,396.75 278.61,396.82 188.27,487.69 188.33,509.89 210.53,509.82 		"/>
		<polygon fill="#FFFFFF" points="233.81,396.95 188,397.08 188.13,442.89 		"/>
	</g>
	
		<rect x="756.8" y="396.84" transform="matrix(1 -2.932866e-03 2.932866e-03 1 -1.326 2.3872)" fill="#C9197C" width="112.96" height="112.96"/>
	
		<rect x="188.4" y="681.73" transform="matrix(1 -2.932866e-03 2.932866e-03 1 -2.1631 0.7205)" fill="#C9197C" width="112.35" height="112.35"/>
	<g>
		<polygon fill="#FFFFFF" points="397.43,793.62 442.99,793.49 442.85,747.93 		"/>
		<polygon fill="#FFFFFF" points="442.72,703.38 442.66,681.3 420.58,681.36 330.73,771.74 330.8,793.82 352.88,793.75 		"/>
		<polygon fill="#FFFFFF" points="376.03,681.5 330.47,681.63 330.6,727.19 		"/>
	</g>
	<g>
		<polygon fill="#FFFFFF" points="539.58,792.94 585.14,792.81 585.01,747.25 		"/>
		<polygon fill="#FFFFFF" points="584.88,702.7 584.81,680.62 562.73,680.68 472.89,771.06 472.95,793.14 495.03,793.07 		"/>
		<polygon fill="#FFFFFF" points="518.18,680.81 472.62,680.95 472.76,726.51 		"/>
	</g>
	
		<rect x="614.87" y="680.36" transform="matrix(1 -2.932866e-03 2.932866e-03 1 -2.1573 1.9712)" fill="#C9197C" width="112.35" height="112.35"/>
	
		<rect x="757.11" y="681.05" transform="matrix(1 -2.932866e-03 2.932866e-03 1 -2.1587 2.3884)" fill="#C9197C" width="112.35" height="112.35"/>
</g>
</svg>
